{"title":"Mune.Guardian.of.the.Moon.2014.BRRip.480p.x264.AAC-VYTO [P2PDL]","uid":13889158,"size":321230396,"categoryP":"video","categoryS":"movies","magnet":"?xt=urn:btih:0013ef562f64dc3190ea9564e80a3891cbe0eb69&amp;dn=Mune.Guardian.of.the.Moon.2014.BRRip.480p.x264.AAC-VYTO+%5BP2PDL%5D&amp;tr=udp%3A%2F%2Ftracker.leechers-paradise.org%3A6969&amp;tr=udp%3A%2F%2Fzer0day.ch%3A1337&amp;tr=udp%3A%2F%2Fopen.demonii.com%3A1337&amp;tr=udp%3A%2F%2Ftracker.coppersurfer.tk%3A6969&amp;tr=udp%3A%2F%2Fexodus.desync.com%3A6969","seeders":0,"leechers":2,"uploader":"VYTOP2PDL","files":6,"time":1458207407,"description":"Mune.Guardian.of.the.Moon.2014.BRRip.480p.x264.AAC-VYTO\r\n\r\n\r\nGenre: Animation \nhttp://www.imdb.com/title/tt3858372/\r\n\r\n\r\nFormat                                   : MPEG-4\r\nFile size                                : 301 MiB\r\nDuration                                 : 1h 24mn\r\nOverall bit rate                         : 496 Kbps\r\n\r\nVideo\r\nFormat                                   : AVC\r\nBit rate                                 : 461 Kbps\r\nWidth                                    : 720 pixels\r\nHeight                                   : 304 pixels\r\nDisplay aspect ratio                     : 2.35:1\r\nFrame rate mode                          : Constant\r\nFrame rate                               : 23.976 fps\r\nBit depth                                : 8 bits\r\nStream size                              : 280 MiB (93%)\r\nWriting library                          : x264\r\n\r\nAudio\r\nFormat                                   : AAC\r\nBit rate mode                            : Variable\r\nBit rate                                 : 32.0 Kbps\r\nChannel(s)                               : 2 channels\r\nChannel positions                        : Front: L R\r\nSampling rate                            : 48.0 KHz\r\nStream size                              : 19.4 MiB (6%)\r\nLanguage                                 : English\r\n\r\nSubtitle                                 : N/a\r\n\r\nScreen Shot: (Click to view)\r\n \nhttp://ititli.com/Xjy \nhttp://ititli.com/Xj3 \nhttp://ititli.com/XjE \nhttp://ititli.com/XjQ \nhttp://ititli.com/XjS \nhttp://ititli.com/XjZ \nhttp://ititli.com/Xjc \nhttp://ititli.com/Xji \nhttp://ititli.com/Xjp\r\n\r\n----------------------------------------------------------------------------------------------------\r\n\r\n\r\nEncoder Notes: Looking For Early Access To Anything You Can Provide WEBDL, DVDScr, DVDR, BluRay,\r\nDirect Audio, Music Releases and Seedboxes. If You Got anything to offer please contact us.\r\n\r\nSupport us by donating BC - 1FgwdzPsd1y25Gea8wP1qni35uGCtmkRCD\r\n\r\nFind us and join us!","torrent":{"xt":"urn:btih:0013ef562f64dc3190ea9564e80a3891cbe0eb69","amp;dn":"Mune.Guardian.of.the.Moon.2014.BRRip.480p.x264.AAC-VYTO+%5BP2PDL%5D","amp;tr":["udp%3A%2F%2Ftracker.leechers-paradise.org%3A6969","udp%3A%2F%2Fzer0day.ch%3A1337","udp%3A%2F%2Fopen.demonii.com%3A1337","udp%3A%2F%2Ftracker.coppersurfer.tk%3A6969","udp%3A%2F%2Fexodus.desync.com%3A6969"],"infoHash":"0013ef562f64dc3190ea9564e80a3891cbe0eb69","infoHashBuffer":{"type":"Buffer","data":[0,19,239,86,47,100,220,49,144,234,149,100,232,10,56,145,203,224,235,105]},"announce":[],"urlList":[]}}